<svg xmlns="http://www.w3.org/2000/svg" version="1.1" xmlns:xlink="http://www.w3.org/1999/xlink" xmlns:svgjs="http://svgjs.dev/svgjs" width="200" height="60" viewBox="0 0 2000 671"><g transform="matrix(1,0,0,1,-1.2121212121215876,-1.3938390223755164)"><svg viewBox="0 0 396 133" data-background-color="#ffffff" preserveAspectRatio="xMidYMid meet" height="671" width="2000" xmlns="http://www.w3.org/2000/svg" xmlns:xlink="http://www.w3.org/1999/xlink"><g id="tight-bounds" transform="matrix(1,0,0,1,0.24000000000006594,0.276275096834496)"><svg viewBox="0 0 395.51999999999987 132.44738944536613" height="132.44738944536613" width="395.51999999999987"><g><svg viewBox="0 0 650.6033597928966 217.86690071033945" height="132.44738944536613" width="395.51999999999987"><g transform="matrix(1,0,0,1,255.0833597928967,30.11040378847673)"><svg viewBox="0 0 395.52 157.646093133386" height="157.646093133386" width="395.52"><g id="textblocktransform"><svg viewBox="0 0 395.52 157.646093133386" height="157.646093133386" width="395.52" id="textblock"><g><svg viewBox="0 0 395.52 157.646093133386" height="157.646093133386" width="395.52"><g transform="matrix(1,0,0,1,0,0)"><svg width="395.52" viewBox="1.85 -37.55 126.68 50.5" height="157.646093133386" data-palette-color="#471aa0"><path d="M15.35-5.3L15.35-5.3Q17.6-7.25 17.6-10.05 17.6-12.85 15.98-14.53 14.35-16.2 12.05-17.03 9.75-17.85 7.43-18.7 5.1-19.55 3.48-21.28 1.85-23 1.85-25.7L1.85-25.7Q1.85-30.4 4.48-32.7 7.1-35 10.75-35 14.4-35 18.75-34.3L18.75-34.3 18.75-32.45Q14.85-33.15 11.45-33.15 8.05-33.15 5.88-31.25 3.7-29.35 3.7-25.9L3.7-25.9Q3.7-22.9 6.8-21.4L6.8-21.4Q8.2-20.7 9.88-20.1 11.55-19.5 13.25-18.75 14.95-18 16.32-16.98 17.7-15.95 18.57-14.13 19.45-12.3 19.45-9.88 19.45-7.45 18.32-5.6 17.2-3.75 15.55-2.7 13.9-1.65 11.7-1L11.7-1Q8.15 0.1 3.7 0.1L3.7 0.1 2.45 0.1 2.45-1.75Q11.35-1.75 15.35-5.3ZM26.2 0L26.2-23.15 20.45-23.15 20.45-25 26.2-25 26.2-33.25 28.05-33.25 28.05-25 33.85-25 33.85-23.15 28.05-23.15 28.05 0 26.2 0ZM51.34-22L51.34-25 53.2-25 53.2 0.05Q50.2 0.05 47.95-0.2 45.7-0.45 43.27-1.28 40.84-2.1 39.3-3.5 37.74-4.9 36.74-7.38 35.74-9.85 35.74-12.95 35.74-16.05 36.37-18.28 36.99-20.5 37.97-21.83 38.95-23.15 40.15-24L40.15-24Q42.25-25.55 44.3-25.55L44.3-25.55Q48.05-25.55 51.34-22L51.34-22ZM37.59-13.2L37.59-13.2Q37.59-6.65 41.65-4.1L41.65-4.1Q45.25-1.85 51.34-1.85L51.34-1.85 51.34-19.5Q49.65-21.45 48.07-22.58 46.5-23.7 44.59-23.7L44.59-23.7Q41.45-23.7 39.52-20.93 37.59-18.15 37.59-13.2ZM74.94-2.05L74.94-25 76.79-25 76.79 0.65Q76.79 4.1 75.94 6.68 75.09 9.25 73.74 10.5L73.74 10.5Q71.24 12.95 68.74 12.95L68.74 12.95Q65.44 12.95 62.44 10.15L62.44 10.15 62.44 7.75Q65.59 11.1 68.47 11.1 71.34 11.1 73.14 8 74.94 4.9 74.94 0.6L74.94 0.6 74.94-0.2Q65.99-0.55 62.44-4.1L62.44-4.1Q59.34-7.3 59.34-13.45L59.34-13.45Q59.34-24.5 59.39-25L59.39-25 61.24-25Q61.19-24.55 61.19-13.4L61.19-13.4Q61.19-6.85 65.24-4.3L65.24-4.3Q68.84-2.05 74.94-2.05L74.94-2.05ZM85.64-25L85.64 0 83.79 0 83.79-25 85.64-25ZM83.89-28.95L83.89-33.25 85.74-33.25 85.74-28.95 83.89-28.95ZM94.74-25L99.54-25 99.54-23.15 94.74-23.15 94.74 0 92.89 0 92.89-23.15 90.89-23.15 90.89-25 92.89-25 92.89-25.25Q92.89-28.7 93.74-31.28 94.59-33.85 95.94-35.1L95.94-35.1Q98.44-37.55 100.94-37.55L100.94-37.55Q102.19-37.55 102.59-37.5L102.59-37.5 102.59-35.65Q102.29-35.7 101.24-35.7L101.24-35.7Q98.34-35.7 96.54-32.6 94.74-29.5 94.74-25.2L94.74-25.2 94.74-25ZM105.69-25L105.69 0 103.84 0 103.84-25 105.69-25ZM103.94-28.95L103.94-33.25 105.79-33.25 105.79-28.95 103.94-28.95ZM128.48-19.95L128.48-19.95 126.58-20Q125.78-21.65 123.88-22.65 121.98-23.65 119.88-23.65L119.88-23.65Q116.48-23.65 114.68-20.63 112.88-17.6 112.88-13.2L112.88-13.2Q112.88-6.75 116.68-4.28 120.48-1.8 128.53-1.8L128.53-1.8 128.53 0.05Q125.53 0.05 123.28-0.2 121.03-0.45 118.58-1.28 116.13-2.1 114.58-3.5 113.03-4.9 112.03-7.38 111.03-9.85 111.03-13.28 111.03-16.7 111.96-19.25 112.88-21.8 114.28-23.1L114.28-23.1Q117.03-25.5 119.93-25.5 122.83-25.5 125.23-24 127.63-22.5 128.48-19.95Z" opacity="1" transform="matrix(1,0,0,1,0,0)" fill="#471aa0" class="wordmark-text-0" data-fill-palette-color="primary" id="text-0"></path></svg></g></svg></g></svg></g></svg></g><g><svg viewBox="0 0 217.86690071033945 217.86690071033945" height="217.86690071033945" width="217.86690071033945"><g><svg></svg></g><g id="icon-0"><svg viewBox="0 0 217.86690071033945 217.86690071033945" height="217.86690071033945" width="217.86690071033945"><g><path transform="scale(2.17867,2.17867)" d="M30 100c-16.569 0-30-13.431-30-30v-40c0-16.569 13.431-30 30-30h40c16.569 0 30 13.431 30 30v40c0 16.569-13.431 30-30 30z" fill="#471aa0" fill-rule="nonzero" stroke="none" stroke-width="1" stroke-linecap="butt" stroke-linejoin="miter" stroke-miterlimit="10" stroke-dasharray="" stroke-dashoffset="0" font-family="none" font-weight="none" font-size="none" text-anchor="none" style="mix-blend-mode: normal" data-fill-palette-color="accent"></path></g><g transform="matrix(1,0,0,1,43.57338014206789,43.58910777145692)"><svg viewBox="0 0 130.72014042620367 130.6886851674256" height="130.6886851674256" width="130.72014042620367"><g><svg xmlns="http://www.w3.org/2000/svg" xmlns:xlink="http://www.w3.org/1999/xlink" version="1.1" x="0" y="0" viewBox="0.2260773788927682 0.236 90.54878880449944 90.527" enable-background="new 0 0 91 91" xml:space="preserve" height="130.6886851674256" width="130.72014042620367" class="icon-dxe-0" data-fill-palette-color="quaternary" id="dxe-0"><g fill="#ffffff" data-fill-palette-color="quaternary"><path d="M87.869 83.501C85.451 86.003 82.249 87.382 78.846 87.382H78.844C75.446 87.382 72.243 86.001 69.827 83.501 69.819 83.493 69.522 82.866 68.597 82.866 67.883 82.866 67.437 83.458 67.437 83.458 67.429 83.464 67.427 83.476 67.419 83.483S67.401 83.493 67.394 83.501C64.978 86.003 61.773 87.382 58.373 87.382H58.369C54.969 87.382 51.767 86.001 49.355 83.501 49.347 83.493 48.941 82.982 48.134 82.982 47.328 82.982 46.965 83.458 46.965 83.458 46.955 83.464 46.953 83.476 46.945 83.483 46.939 83.491 46.928 83.493 46.921 83.501 44.505 86.003 41.299 87.382 37.897 87.382H37.893C34.492 87.382 31.289 86.001 28.877 83.501 28.877 83.501 28.518 82.982 27.619 82.982 26.852 82.982 26.469 83.483 26.469 83.483 26.461 83.491 26.449 83.493 26.443 83.501 24.025 86.003 20.821 87.382 17.42 87.382H17.418C14.017 87.382 10.815 86.001 8.399 83.501A1.69 1.69 0 0 0 6.008 83.458 1.69 1.69 0 0 0 5.965 85.848C9.026 89.017 13.091 90.763 17.416 90.763H17.42C21.194 90.763 24.774 89.432 27.658 86.989 30.54 89.43 34.116 90.761 37.892 90.763H37.896C41.672 90.763 45.25 89.432 48.137 86.989 51.017 89.43 54.591 90.761 58.367 90.763H58.371C62.145 90.763 65.725 89.432 68.609 86.989 71.493 89.432 75.068 90.763 78.842 90.763H78.844C83.171 90.763 87.24 89.017 90.301 85.848A1.69 1.69 0 0 0 90.258 83.458 1.686 1.686 0 0 0 87.869 83.501" fill="#ffffff" data-fill-palette-color="quaternary"></path><path d="M11.995 46.628C13.776 46.091 15.565 46.091 17.179 46.341 13.692 48.557 11.712 53.358 11.305 60.613A1.69 1.69 0 1 0 14.681 60.803C15.019 54.793 16.503 50.783 18.976 49.202 20.401 48.29 21.885 48.357 22.791 48.526 24.515 51.683 29.986 62.426 29.325 70.587 29.29 71.027 29.435 71.436 29.687 71.758 20.106 74.517 14.356 78.619 14.226 78.713A1.69 1.69 0 0 0 13.86 81.074C14.408 81.827 15.47 81.986 16.221 81.441 16.5 81.239 44.497 61.377 80.231 82.129A1.694 1.694 0 0 0 82.544 81.516 1.693 1.693 0 0 0 81.931 79.204 78 78 0 0 0 69.684 73.435C70.81 72.579 71.516 71.405 71.797 70.603A1.7 1.7 0 0 0 71.887 70.165C71.901 69.988 73.163 52.358 73.612 45.01 73.791 42.085 74.177 39.68 74.583 37.829 75.324 39.486 76.72 41.434 79.018 42.462 82.651 44.091 85.814 40.97 86.221 40.537 86.331 40.423 86.939 39.661 87.013 39.517 87.245 39.065 89.287 35.045 89.769 33.203 90.644 29.883 89.545 27.18 86.829 25.973 84.37 24.88 82.354 26.284 81.234 27.667 81.034 26.928 80.778 26.238 80.448 25.67A4.1 4.1 0 0 0 79.127 24.284 13.33 13.33 0 0 0 84.527 13.572C84.527 6.22 78.545 0.236 71.191 0.236S57.853 6.22 57.853 13.572C57.853 15.75 58.409 17.832 59.371 19.692 58.172 19.873 57.074 20.229 56.247 20.498L56.059 20.559C55.98 20.113 55.912 19.576 55.862 19.186 55.772 18.478 55.687 17.808 55.542 17.234 54.801 14.276 52.662 12.504 50.056 12.699 47.077 12.937 46.196 15.642 46.146 17.026 46.142 17.114 46.058 19.263 46.895 23.922 47.326 26.311 48.733 29.413 53.091 30.659 53.421 30.773 53.867 30.916 57.909 30.337 57.756 30.752 57.484 31.632 56.975 33.295 56.164 35.935 54.942 39.923 54.142 41.925 53.88 42.579 53.494 42.951 52.925 43.094 52.077 43.306 51.124 42.96 50.827 42.713 50.227 42.202 46.113 36.029 45.985 35.884 44.758 34.478 42.34 33.822 39.818 34.934 36.879 36.226 37.353 39.961 38.096 41.962 38.141 42.084 38.199 42.198 38.267 42.304 38.442 42.569 42.59 48.855 45.7 51.682 48.625 54.339 53.877 53.015 57.355 52.136 58.244 51.909 59.082 51.698 59.462 51.662 59.773 51.771 60.366 52.857 60.632 53.968L60.634 69.775C60.634 70.124 60.693 70.471 60.781 70.817 53.209 69.148 46.256 69.01 40.156 69.693 40.341 69.414 40.473 69.095 40.463 68.735 40.382 65.254 39.777 62.258 38.845 59.679 38.928 59.328 38.928 58.957 38.77 58.606 38.624 58.277 38.371 58.045 38.086 57.875 34.957 50.992 29.525 47.515 26.458 46.038 26.582 45.88 26.726 45.719 26.92 45.581 27.726 45.005 29.829 44.294 34.858 45.975A1.692 1.692 0 0 0 35.932 42.769C31.072 41.145 27.424 41.151 25.059 42.767 25.102 40.799 25.511 38.336 26.96 36.225 28.682 33.716 31.595 32.173 35.617 31.637A1.691 1.691 0 0 0 35.171 28.285C30.158 28.951 26.458 30.98 24.172 34.312 22.838 36.254 22.185 38.379 21.888 40.332 19.553 37.505 16.995 35.716 14.239 34.989 9.855 33.829 6.659 35.895 6.527 35.984A1.685 1.685 0 0 0 6.044 38.308 1.7 1.7 0 0 0 8.377 38.815C8.463 38.762 10.531 37.484 13.453 38.278 15.743 38.907 17.974 40.708 20.048 43.511 17.52 42.787 14.331 42.394 11.047 43.383 6.479 44.753 2.885 48.412 0.365 54.255A1.69 1.69 0 0 0 1.915 56.616C2.57 56.616 3.193 56.235 3.468 55.596 5.569 50.723 8.437 47.706 11.995 46.628M59.193 48.299C58.519 48.355 57.638 48.576 56.524 48.858 54.09 49.475 49.553 50.622 47.974 49.182 45.444 46.884 41.888 41.64 41.206 40.62 40.776 39.835 40.424 38.497 41.179 38.031 42.626 37.139 43.347 37.898 43.687 38.405 44.745 40.086 47.44 44.279 48.645 45.297 49.683 46.174 51.723 46.887 53.744 46.38 55.364 45.972 56.618 44.838 57.281 43.182 58.132 41.051 59.329 37.143 60.204 34.289 60.588 33.04 60.984 31.749 61.083 31.499 61.464 30.556 62.032 28.753 62.032 28.753A1.68 1.68 0 0 0 61.702 27.141 1.67 1.67 0 0 0 60.155 26.575C57.698 26.968 54.723 27.377 53.951 27.391L53.928 27.385C52.579 26.998 50.732 26.16 50.222 23.325 49.461 19.11 49.523 17.194 49.523 17.166 49.527 17.06 49.582 16.13 50.319 16.073 51.573 15.965 52.104 17.427 52.261 18.061 52.366 18.481 52.432 19.042 52.506 19.616 52.738 21.46 52.96 23.204 54.26 23.929 55.139 24.419 56.041 24.124 57.293 23.717 59.017 23.157 60.664 22.715 61.94 23.143 63.043 24.212 64.316 25.121 65.769 25.767A1.696 1.696 0 0 0 68.002 24.908 1.695 1.695 0 0 0 67.143 22.675C66.638 22.451 61.312 19.932 61.232 13.575 61.163 8.087 65.698 3.622 71.189 3.622 76.677 3.622 81.143 8.086 81.143 13.575 81.143 18.112 78.061 22.003 73.697 23.216 72.197 23.633 72.577 25.62 72.804 26.033 73.254 26.851 74.202 27.533 75.071 27.193 75.089 27.187 77.023 26.521 77.524 27.378 78.038 28.258 78.348 30.295 78.55 31.644 78.864 33.73 79.024 34.777 80.184 35.206 80.756 35.418 81.519 35.273 81.987 34.874 82.282 34.62 83.056 33.96 83.683 30.038 83.972 29.613 84.694 28.728 85.453 29.067 86.587 29.57 86.939 30.673 86.497 32.346 86.218 33.417 84.937 36.128 84.118 37.752 83.472 38.904 81.452 39.859 80.402 39.379 78.329 38.451 77.456 36.151 77.295 35.341 76.501 31.376 75.713 30.93 74.84 30.777 74.14 30.655 73.367 31.034 73.01 31.632 72.65 32.232 70.718 36.938 70.236 44.807 69.82 51.64 68.697 67.395 68.534 69.656 68.328 70.094 67.684 71.236 66.37 71.143 64.744 71.041 64.015 70.384 64.015 69.779V53.784C64.015 53.67 64.003 53.555 63.98 53.445 63.464 50.93 61.896 48.028 59.193 48.299M37.081 68.816C37.093 69.313 37.319 69.726 37.664 70.023 35.914 70.289 34.246 70.615 32.659 70.99 32.669 70.945 32.693 70.908 32.697 70.86 32.889 68.476 32.618 65.944 32.111 63.439L35.954 61.717C36.601 63.78 37.018 66.129 37.081 68.816M34.694 58.578L31.303 60.094C30.265 56.488 28.846 53.119 27.631 50.564A20.7 20.7 0 0 1 34.694 58.578" fill="#ffffff" data-fill-palette-color="quaternary"></path><path d="M72.105 15.458A1.693 1.693 0 0 0 69.73 15.173C69.712 15.189 67.841 16.618 65.767 15.13A1.69 1.69 0 1 0 63.796 17.876C65.139 18.839 66.497 19.185 67.728 19.185 69.517 19.185 71.033 18.454 71.823 17.833A1.69 1.69 0 0 0 72.105 15.458" fill="#ffffff" data-fill-palette-color="quaternary"></path><path d="M70.98 13.354A1.9 1.9 0 0 0 72.879 11.457 1.9 1.9 0 0 0 70.98 9.56 1.9 1.9 0 0 0 69.085 11.457 1.9 1.9 0 0 0 70.98 13.354" fill="#ffffff" data-fill-palette-color="quaternary"></path><path d="M64.574 13.354A1.896 1.896 0 0 0 66.47 11.457 1.9 1.9 0 0 0 64.574 9.56 1.897 1.897 0 0 0 64.574 13.354" fill="#ffffff" data-fill-palette-color="quaternary"></path><path d="M7.405 17.044C7.405 21.058 10.668 24.323 14.682 24.323S21.961 21.058 21.961 17.044 18.696 9.765 14.682 9.765 7.405 13.03 7.405 17.044M14.682 13.148A3.9 3.9 0 0 1 18.58 17.044 3.9 3.9 0 0 1 14.682 20.94 3.9 3.9 0 0 1 10.786 17.044 3.9 3.9 0 0 1 14.682 13.148" fill="#ffffff" data-fill-palette-color="quaternary"></path><path d="M16.375 6.531V4.557C16.375 3.621 15.618 2.867 14.683 2.867S12.993 3.622 12.993 4.557V6.531A1.69 1.69 0 1 0 16.375 6.531" fill="#ffffff" data-fill-palette-color="quaternary"></path><path d="M22.319 7.017L20.921 8.413A1.695 1.695 0 0 0 20.919 10.806 1.69 1.69 0 0 0 23.311 10.808L24.708 9.412A1.692 1.692 0 0 0 22.319 7.017" fill="#ffffff" data-fill-palette-color="quaternary"></path><path d="M28.861 17.044A1.69 1.69 0 0 0 27.169 15.354H25.197A1.69 1.69 0 1 0 25.197 18.734H27.169A1.69 1.69 0 0 0 28.861 17.044" fill="#ffffff" data-fill-palette-color="quaternary"></path><path d="M23.312 23.282A1.694 1.694 0 0 0 20.919 23.282 1.697 1.697 0 0 0 20.921 25.676L22.319 27.07A1.69 1.69 0 1 0 24.709 24.675z" fill="#ffffff" data-fill-palette-color="quaternary"></path><path d="M12.992 27.557V29.531A1.69 1.69 0 0 0 16.374 29.531V27.557A1.69 1.69 0 0 0 12.992 27.557" fill="#ffffff" data-fill-palette-color="quaternary"></path><path d="M6.052 23.282L4.658 24.678A1.693 1.693 0 0 0 7.053 27.07L8.447 25.674A1.694 1.694 0 0 0 6.052 23.282" fill="#ffffff" data-fill-palette-color="quaternary"></path><path d="M2.195 18.734H4.171A1.69 1.69 0 1 0 4.171 15.354H2.195A1.69 1.69 0 1 0 2.195 18.734" fill="#ffffff" data-fill-palette-color="quaternary"></path><path d="M6.052 10.805A1.69 1.69 0 0 0 8.444 10.807C9.104 10.146 9.104 9.075 8.446 8.414L7.053 7.019A1.694 1.694 0 0 0 4.661 7.017 1.695 1.695 0 0 0 4.659 9.411z" fill="#ffffff" data-fill-palette-color="quaternary"></path></g></svg></g></svg></g></svg></g></svg></g></svg></g><defs></defs></svg><rect width="395.51999999999987" height="132.44738944536613" fill="none" stroke="none" visibility="hidden"></rect></g></svg></g></svg>